<svg width="20" height="20" viewBox="0 0 20 20" fill="none" xmlns="http://www.w3.org/2000/svg">
<path d="M0 10C0 11.9778 0.58649 13.9112 1.6853 15.5557C2.78412 17.2002 4.3459 18.4819 6.17317 19.2388C8.00043 19.9957 10.0111 20.1937 11.9509 19.8078C13.8907 19.422 15.6725 18.4696 17.0711 17.0711C18.4696 15.6725 19.422 13.8907 19.8079 11.9509C20.1937 10.0111 19.9957 8.00042 19.2388 6.17316C18.4819 4.3459 17.2002 2.78411 15.5557 1.6853C13.9112 0.586487 11.9778 -3.8147e-06 10 -3.8147e-06C8.68678 -3.8147e-06 7.38642 0.258654 6.17317 0.7612C4.95991 1.26375 3.85752 2.00034 2.92893 2.92893C2.00035 3.85751 1.26375 4.9599 0.761205 6.17316C0.258658 7.38642 0 8.68678 0 10ZM8.29 12.29L9.59 11H4V9H9.59L8.3 7.71L9.71 6.3L13.41 10L9.71 13.71L8.29 12.29ZM16 6V14H14V6L16 6Z" fill="#18333E"/>
</svg>
