<svg width="19" height="22" viewBox="0 0 19 22" fill="none" xmlns="http://www.w3.org/2000/svg">
<path d="M3.695 2.37272C-0.355004 6.3909 -0.355004 10.0545 3.965 16.0818C6.26 19.1545 8.69 21.6364 9.5 21.6364C10.31 21.6364 12.74 19.1545 15.035 15.9636C17.87 11.9454 18.815 9.58181 18.275 7.45454C17.06 3.08181 13.685 0.363627 9.5 0.363627C7.475 0.363627 4.91 1.30908 3.695 2.37272ZM11.93 8.87272C11.66 10.4091 10.58 11.5909 9.5 11.5909C8.42 11.5909 7.34 10.4091 7.07 8.87272C6.665 6.86363 7.34 6.27272 9.5 6.27272C11.66 6.27272 12.335 6.86363 11.93 8.87272Z" fill="#B4BCC4"/>
</svg>
