<svg width="22" height="22" viewBox="0 0 22 22" fill="none" xmlns="http://www.w3.org/2000/svg">
<path d="M13.6033 9.99167L18.7916 6.5175C19.3141 6.16917 19.4516 5.45417 19.1033 4.94084L17.4349 2.45667C17.0866 1.93417 16.3716 1.79667 15.8583 2.145L10.6699 5.61917L13.6033 9.99167Z" fill="#18333E"/>
<path d="M13.3104 9.55166L11.697 10.6333L9.24953 12.2742L8.9287 12.485L8.78203 12.265L6.7287 9.20333L6.58203 8.98333L10.9637 6.05L13.3104 9.55166Z" fill="#18333E"/>
<path d="M5.17001 14.685L8.79084 12.265L6.73751 9.20333L3.11667 11.6233C2.69501 11.9075 2.58501 12.4758 2.86917 12.8975L3.90501 14.4375C4.18001 14.8592 4.74834 14.9692 5.17001 14.685Z" fill="#18333E"/>
<path d="M15.1798 19.9925C15.0881 20.0292 14.9873 20.0567 14.8956 20.0567C14.6298 20.0567 14.3823 19.9008 14.2631 19.6442L10.8439 12.0908L7.37895 19.6533C7.25978 19.9008 7.01228 20.0567 6.74645 20.0567C6.65478 20.0567 6.55395 20.0292 6.46228 19.9925C6.12312 19.8275 5.96728 19.4242 6.12312 19.0758L9.24895 12.2742L11.6964 10.6333L15.5189 19.085C15.6748 19.4242 15.5189 19.8367 15.1798 19.9925Z" fill="#18333E"/>
</svg>
