<svg width="32" height="32" viewBox="0 0 32 32" fill="none" xmlns="http://www.w3.org/2000/svg">
<g clip-path="url(#clip0_154_7)">
<path fill-rule="evenodd" clip-rule="evenodd" d="M16 -0.133331C16.389 -0.133331 16.762 0.021192 17.0371 0.296245C17.3121 0.571299 17.4667 0.944351 17.4667 1.33334V2.8C17.4667 3.18899 17.3121 3.56204 17.0371 3.83709C16.762 4.11215 16.389 4.26667 16 4.26667C15.611 4.26667 15.238 4.11215 14.9629 3.83709C14.6879 3.56204 14.5333 3.18899 14.5333 2.8V1.33334C14.5333 0.944351 14.6879 0.571299 14.9629 0.296245C15.238 0.021192 15.611 -0.133331 16 -0.133331V-0.133331ZM3.22974 3.22974C3.50478 2.95478 3.87776 2.80032 4.26667 2.80032C4.65558 2.80032 5.02856 2.95478 5.3036 3.22974L7.5036 5.42974C7.77077 5.70635 7.9186 6.07684 7.91526 6.46139C7.91192 6.84595 7.75767 7.2138 7.48574 7.48574C7.2138 7.75767 6.84595 7.91192 6.46139 7.91526C6.07684 7.9186 5.70635 7.77077 5.42974 7.5036L3.22974 5.3036C2.95478 5.02856 2.80032 4.65558 2.80032 4.26667C2.80032 3.87776 2.95478 3.50478 3.22974 3.22974V3.22974ZM28.7703 3.22974C29.0452 3.50478 29.1997 3.87776 29.1997 4.26667C29.1997 4.65558 29.0452 5.02856 28.7703 5.3036L26.5703 7.5036C26.435 7.64368 26.2731 7.75542 26.0942 7.83228C25.9153 7.90915 25.7228 7.94961 25.5281 7.9513C25.3333 7.953 25.1402 7.91589 24.9599 7.84214C24.7797 7.7684 24.6159 7.65949 24.4782 7.52178C24.3405 7.38407 24.2316 7.22032 24.1579 7.04007C24.0841 6.85982 24.047 6.66669 24.0487 6.47195C24.0504 6.2772 24.0909 6.08475 24.1677 5.90581C24.2446 5.72687 24.3563 5.56503 24.4964 5.42974L26.6964 3.22974C26.9714 2.95478 27.3444 2.80032 27.7333 2.80032C28.1222 2.80032 28.4952 2.95478 28.7703 3.22974ZM-0.133331 16C-0.133331 15.611 0.021192 15.238 0.296245 14.9629C0.571299 14.6879 0.944351 14.5333 1.33334 14.5333H2.8C3.18899 14.5333 3.56204 14.6879 3.83709 14.9629C4.11215 15.238 4.26667 15.611 4.26667 16C4.26667 16.389 4.11215 16.762 3.83709 17.0371C3.56204 17.3121 3.18899 17.4667 2.8 17.4667H1.33334C0.944351 17.4667 0.571299 17.3121 0.296245 17.0371C0.021192 16.762 -0.133331 16.389 -0.133331 16ZM27.7333 16C27.7333 15.611 27.8879 15.238 28.1629 14.9629C28.438 14.6879 28.811 14.5333 29.2 14.5333H30.6667C31.0557 14.5333 31.4287 14.6879 31.7038 14.9629C31.9788 15.238 32.1333 15.611 32.1333 16C32.1333 16.389 31.9788 16.762 31.7038 17.0371C31.4287 17.3121 31.0557 17.4667 30.6667 17.4667H29.2C28.811 17.4667 28.438 17.3121 28.1629 17.0371C27.8879 16.762 27.7333 16.389 27.7333 16ZM7.5036 24.4964C7.77856 24.7714 7.93302 25.1444 7.93302 25.5333C7.93302 25.9222 7.77856 26.2952 7.5036 26.5703L5.3036 28.7703C5.02699 29.0374 4.6565 29.1853 4.27195 29.1819C3.88739 29.1786 3.51953 29.0243 3.2476 28.7524C2.97567 28.4805 2.82142 28.1126 2.81808 27.7281C2.81474 27.3435 2.96257 26.973 3.22974 26.6964L5.42974 24.4964C5.70478 24.2214 6.07776 24.067 6.46667 24.067C6.85558 24.067 7.22856 24.2214 7.5036 24.4964V24.4964ZM24.4964 24.4964C24.7714 24.2214 25.1444 24.067 25.5333 24.067C25.9222 24.067 26.2952 24.2214 26.5703 24.4964L28.7703 26.6964C29.0374 26.973 29.1853 27.3435 29.1819 27.7281C29.1786 28.1126 29.0243 28.4805 28.7524 28.7524C28.4805 29.0243 28.1126 29.1786 27.7281 29.1819C27.3435 29.1853 26.973 29.0374 26.6964 28.7703L24.4964 26.5703C24.2214 26.2952 24.067 25.9222 24.067 25.5333C24.067 25.1444 24.2214 24.7714 24.4964 24.4964ZM16 27.7333C16.389 27.7333 16.762 27.8879 17.0371 28.1629C17.3121 28.438 17.4667 28.811 17.4667 29.2V30.6667C17.4667 31.0557 17.3121 31.4287 17.0371 31.7038C16.762 31.9788 16.389 32.1333 16 32.1333C15.611 32.1333 15.238 31.9788 14.9629 31.7038C14.6879 31.4287 14.5333 31.0557 14.5333 30.6667V29.2C14.5333 28.811 14.6879 28.438 14.9629 28.1629C15.238 27.8879 15.611 27.7333 16 27.7333V27.7333Z" fill="#18333E"/>
<path d="M16 6.83334C13.5689 6.83334 11.2373 7.79911 9.5182 9.5182C7.79911 11.2373 6.83334 13.5689 6.83334 16C6.83334 18.4312 7.79911 20.7627 9.5182 22.4818C11.2373 24.2009 13.5689 25.1667 16 25.1667C18.4312 25.1667 20.7627 24.2009 22.4818 22.4818C24.2009 20.7627 25.1667 18.4312 25.1667 16C25.1667 13.5689 24.2009 11.2373 22.4818 9.5182C20.7627 7.79911 18.4312 6.83334 16 6.83334V6.83334Z" fill="#18333E"/>
</g>
<defs>
<clipPath id="clip0_154_7">
<rect width="32" height="32" fill="white"/>
</clipPath>
</defs>
</svg>
