<svg width="50" height="50" viewBox="0 0 50 50" fill="none" xmlns="http://www.w3.org/2000/svg">
<g clip-path="url(#clip0_1_78)">
<path d="M27 24.38V24.31C27.6569 24.191 28.2515 23.8458 28.6807 23.3345C29.1099 22.8231 29.3467 22.1776 29.35 21.51C29.35 19.51 27.81 18.29 25.47 18.29H20.15V31.19H25.45C28.26 31.19 29.95 29.82 29.95 27.54C29.9566 26.7357 29.6543 25.9595 29.1054 25.3715C28.5565 24.7836 27.8029 24.4287 27 24.38ZM22.24 19.93H24.97C26.46 19.93 27.3 20.59 27.3 21.79C27.3 22.99 26.3 23.79 24.54 23.79H22.24V19.93ZM25 29.55H22.19V25.31H24.91C26.85 25.31 27.86 26.02 27.86 27.41C27.86 28.8 26.88 29.55 25 29.55Z" fill="#F2F8FD"/>
<path d="M25 0C20.0555 0 15.222 1.46622 11.1107 4.21326C6.99949 6.96029 3.79518 10.8648 1.90299 15.4329C0.0108017 20.0011 -0.484282 25.0277 0.480349 29.8773C1.44497 34.7268 3.82599 39.1814 7.32231 42.6777C10.8186 46.174 15.2732 48.555 20.1227 49.5196C24.9723 50.4843 29.9989 49.9892 34.5671 48.097C39.1352 46.2048 43.0397 43.0005 45.7867 38.8893C48.5338 34.778 50 29.9445 50 25C50 18.3696 47.3661 12.0107 42.6777 7.32233C37.9893 2.63392 31.6304 0 25 0ZM40 25.51C38.57 25.65 37.7 26.71 37.18 28.39C36.726 30.1213 36.5472 31.9132 36.65 33.7C36.6717 34.1072 36.6102 34.5146 36.4692 34.8972C36.3283 35.2799 36.1107 35.6298 35.83 35.9255C35.5492 36.2213 35.2111 36.4567 34.8362 36.6173C34.4614 36.778 34.0578 36.8606 33.65 36.86H15.89C15.4822 36.8606 15.0786 36.778 14.7037 36.6173C14.3289 36.4567 13.9908 36.2213 13.71 35.9255C13.4293 35.6298 13.2117 35.2799 13.0707 34.8972C12.9297 34.5146 12.8682 34.1072 12.89 33.7C12.9928 31.9132 12.8139 30.1213 12.36 28.39C11.84 26.71 10.96 25.65 9.52998 25.51V24C10.97 23.86 11.84 22.8 12.36 21.12C12.8139 19.3887 12.9928 17.5968 12.89 15.81C12.8682 15.4028 12.9297 14.9954 13.0707 14.6128C13.2117 14.2301 13.4293 13.8802 13.71 13.5845C13.9908 13.2887 14.3289 13.0533 14.7037 12.8927C15.0786 12.732 15.4822 12.6494 15.89 12.65H33.69C34.0978 12.6494 34.5014 12.732 34.8762 12.8927C35.2511 13.0533 35.5892 13.2887 35.87 13.5845C36.1507 13.8802 36.3683 14.2301 36.5093 14.6128C36.6502 14.9954 36.7117 15.4028 36.69 15.81C36.5872 17.5968 36.766 19.3887 37.22 21.12C37.74 22.8 38.62 23.86 40.04 24L40 25.51Z" fill="#F2F8FD"/>
</g>
<defs>
<clipPath id="clip0_1_78">
<rect width="50" height="50" fill="white"/>
</clipPath>
</defs>
</svg>
