<svg width="50" height="50" viewBox="0 0 50 50" fill="none" xmlns="http://www.w3.org/2000/svg">
<g clip-path="url(#clip0_1_82)">
<path d="M17.9408 22.7865L17.6153 19.8754H32.4777L32.1615 22.7399L24.8884 25.9766L31.8638 25.9301L31.1477 34.6819L25.0465 36.3839L18.9639 34.5982L18.6477 30.106L21.5588 30.0688L21.7076 32.4312L25.093 33.4356L28.497 32.4684L28.9621 28.7109L18.6477 28.6737L18.285 25.8556L25.5115 22.833L17.9408 22.7865Z" fill="#F2F8FD"/>
<path d="M25 0C20.0555 0 15.222 1.46622 11.1107 4.21326C6.99951 6.9603 3.7952 10.8648 1.90301 15.4329C0.0108171 20.0011 -0.484267 25.0277 0.480364 29.8773C1.44499 34.7268 3.82601 39.1814 7.32233 42.6777C10.8186 46.174 15.2732 48.555 20.1227 49.5196C24.9723 50.4843 29.9989 49.9892 34.5671 48.097C39.1352 46.2048 43.0397 43.0005 45.7867 38.8893C48.5338 34.778 50 29.9445 50 25C49.9975 18.3703 47.3628 12.0129 42.6749 7.32505C37.9871 2.63718 31.6297 0.00246501 25 0ZM27.5112 11.5048H28.8318L27.4926 10.3609V8.77046H31.1012V10.3609H29.7619L31.1384 11.5048V13.0952H27.5112V11.5048ZM22.5632 11.5048H23.9025L22.5632 10.3609V8.77046H26.1719V10.3609H24.7954L26.1719 11.5048V13.0952H22.5632V11.5048ZM17.4572 8.77046H21.1775V10.3609H19.0476V11.5048H21.2147V13.0952H17.4944L17.4572 8.77046ZM34.7191 38.7835L25.0465 41.4993L15.2716 38.7091L13.1138 15.0298H36.9699L34.7191 38.7835Z" fill="#F2F8FD"/>
</g>
<defs>
<clipPath id="clip0_1_82">
<rect width="50" height="50" fill="white"/>
</clipPath>
</defs>
</svg>
