<svg width="50" height="50" viewBox="0 0 50 50" fill="none" xmlns="http://www.w3.org/2000/svg">
<g clip-path="url(#clip0_1_86)">
<path d="M16.94 16.48C16.94 17.4295 17.3172 18.3401 17.9886 19.0115C18.6599 19.6828 19.5705 20.06 20.52 20.06H24.22V12.89H20.52C20.049 12.89 19.5827 12.9829 19.1477 13.1635C18.7127 13.344 18.3176 13.6086 17.985 13.9421C17.6525 14.2756 17.389 14.6714 17.2096 15.1069C17.0303 15.5424 16.9387 16.009 16.94 16.48Z" fill="#F2F8FD"/>
<path d="M20.5 30.72C19.582 30.7745 18.7199 31.1792 18.0915 31.8506C17.4632 32.5221 17.1164 33.4091 17.1228 34.3287C17.1292 35.2483 17.4883 36.1304 18.126 36.793C18.7637 37.4556 19.6313 37.8483 20.55 37.89C21.5182 37.89 22.4471 37.5075 23.1345 36.8257C23.8219 36.1439 24.2121 35.2181 24.22 34.25V30.72H20.5Z" fill="#F2F8FD"/>
<path d="M29.67 21.81H29.55C28.6319 21.8585 27.7675 22.2574 27.1348 22.9244C26.5021 23.5914 26.1494 24.4757 26.1494 25.395C26.1494 26.3143 26.5021 27.1986 27.1348 27.8656C27.7675 28.5326 28.6319 28.9315 29.55 28.98H29.67C30.5881 28.9315 31.4525 28.5326 32.0852 27.8656C32.7179 27.1986 33.0706 26.3143 33.0706 25.395C33.0706 24.4757 32.7179 23.5914 32.0852 22.9244C31.4525 22.2574 30.5881 21.8585 29.67 21.81Z" fill="#F2F8FD"/>
<path d="M16.94 25.39C16.9361 25.861 17.0251 26.3281 17.202 26.7646C17.3789 27.2011 17.6401 27.5984 17.9708 27.9338C18.3016 28.2691 18.6952 28.5359 19.1292 28.7189C19.5632 28.9019 20.029 28.9974 20.5 29H24.22V21.81H20.52C19.5705 21.81 18.6599 22.1872 17.9886 22.8586C17.3172 23.5299 16.94 24.4405 16.94 25.39Z" fill="#F2F8FD"/>
<path d="M25 0C20.0555 0 15.222 1.46622 11.1107 4.21326C6.99951 6.96029 3.7952 10.8648 1.90301 15.4329C0.0108169 20.0011 -0.484267 25.0277 0.480364 29.8773C1.44499 34.7268 3.82601 39.1814 7.32233 42.6777C10.8186 46.174 15.2732 48.555 20.1227 49.5196C24.9723 50.4843 29.9989 49.9892 34.5671 48.097C39.1352 46.2048 43.0397 43.0005 45.7867 38.8893C48.5338 34.778 50 29.9445 50 25C50 18.3696 47.3661 12.0107 42.6777 7.32233C37.9893 2.63392 31.6304 0 25 0ZM35 25.39C35 26.8036 34.4384 28.1593 33.4389 29.1589C32.4393 30.1584 31.0836 30.72 29.67 30.72H29.55C28.2365 30.7158 26.9715 30.224 26 29.34V34.25C25.9921 35.6823 25.4175 37.0532 24.4019 38.0631C23.3864 39.0731 22.0123 39.64 20.58 39.64C19.4294 39.6468 18.3076 39.2812 17.382 38.5977C16.4564 37.9142 15.7769 36.9495 15.4449 35.8479C15.113 34.7462 15.1464 33.5667 15.5403 32.4857C15.9341 31.4046 16.6672 30.48 17.63 29.85C16.8892 29.3665 16.2807 28.7059 15.8596 27.9281C15.4384 27.1502 15.2178 26.2796 15.2178 25.395C15.2178 24.5104 15.4384 23.6398 15.8596 22.8619C16.2807 22.0841 16.8892 21.4235 17.63 20.94C16.6694 20.3114 15.9374 19.3895 15.543 18.3114C15.1485 17.2333 15.1127 16.0567 15.4408 14.9566C15.7689 13.8565 16.4434 12.8917 17.364 12.2058C18.2846 11.52 19.402 11.1497 20.55 11.15H29.7C30.848 11.1497 31.9654 11.52 32.886 12.2058C33.8066 12.8917 34.4811 13.8565 34.8092 14.9566C35.1373 16.0567 35.1015 17.2333 34.707 18.3114C34.3126 19.3895 33.5806 20.3114 32.62 20.94C33.3541 21.4268 33.9558 22.0882 34.3712 22.8648C34.7866 23.6415 35.0027 24.5092 35 25.39Z" fill="#F2F8FD"/>
<path d="M29.67 12.89H26V20.06H29.7C30.6181 20.0115 31.4825 19.6127 32.1152 18.9457C32.7479 18.2787 33.1006 17.3944 33.1006 16.475C33.1006 15.5557 32.7479 14.6714 32.1152 14.0044C31.4825 13.3374 30.6181 12.9385 29.7 12.89H29.67Z" fill="#F2F8FD"/>
</g>
<defs>
<clipPath id="clip0_1_86">
<rect width="50" height="50" fill="white"/>
</clipPath>
</defs>
</svg>
