<svg width="50" height="50" viewBox="0 0 50 50" fill="none" xmlns="http://www.w3.org/2000/svg">
<g clip-path="url(#clip0_1_94)">
<path d="M25.6822 29.0205H29.4944L29.136 33.04L25.6822 33.974H25.6782L22.2274 33.04L22 30.4622H18.8883L19.333 35.436L25.6782 37.1965L25.6822 37.1944L32.0304 35.436L32.8792 25.9249H25.6822H21.5929L21.3096 22.7543H25.6822H33.1614L33.4386 19.6577H25.6822H17.9249L18.7614 29.0205H25.6822Z" fill="#F2F8FD"/>
<path d="M25 0C11.1929 0 0 11.1954 0 25.001C0 38.8087 11.1919 50 25 50C38.8091 50 50 38.8087 50 25.001C50 11.1954 38.8081 0 25 0ZM31.9797 7.7191H33.5543V10.8735H35.7675V12.4279H31.9807V7.7191H31.9797ZM25.8954 7.7191H27.535L28.5442 9.37297L29.5533 7.7191H31.1949V12.4289H29.6264V10.0948L28.5442 11.768H28.5188L27.4345 10.0948V12.4289H25.8954V7.7191ZM20.8599 7.7191H25.2061V9.2816H23.8183V12.4289H22.2457V9.2816H20.8599V7.7191ZM15.5878 7.7191H17.1614V9.2755H18.601V7.7191H20.1756V12.4289H18.601V10.8522H17.1614V12.4289H15.5878V7.7191ZM35.7929 39.7488L25.6761 42.555L15.5706 39.7468L13.3188 14.495H38.0447L35.7929 39.7488Z" fill="#F2F8FD"/>
</g>
<defs>
<clipPath id="clip0_1_94">
<rect width="50" height="50" fill="white"/>
</clipPath>
</defs>
</svg>
