<svg width="50" height="50" viewBox="0 0 50 50" fill="none" xmlns="http://www.w3.org/2000/svg">
<g clip-path="url(#clip0_11_33)">
<path d="M25.09 11.6C22.4923 11.598 19.9524 12.3666 17.7916 13.8086C15.6309 15.2506 13.9464 17.3011 12.9514 19.7007C11.9564 22.1003 11.6955 24.7412 12.2018 27.2891C12.7081 29.837 13.9588 32.1774 15.7957 34.0143C17.6326 35.8512 19.973 37.1019 22.5209 37.6082C25.0688 38.1145 27.7097 37.8536 30.1093 36.8586C32.5089 35.8636 34.5594 34.1791 36.0014 32.0184C37.4434 29.8576 38.212 27.3177 38.21 24.72C38.21 21.2403 36.8277 17.9032 34.3673 15.4427C31.9068 12.9823 28.5697 11.6 25.09 11.6ZM26.09 18.14L26.49 17.56C26.2002 18.2547 26.1521 19.0266 26.3534 19.7519C26.5547 20.4772 26.9937 21.1139 27.6 21.56C27.802 21.7187 28.0198 21.8561 28.25 21.97L28.62 22.13L28.93 22.23C29.4429 22.4361 30.0096 22.4664 30.5415 22.3163C31.0735 22.1661 31.5407 21.8439 31.87 21.4C31.5955 22.0635 31.0846 22.6016 30.4362 22.9101C29.7878 23.2186 29.048 23.2756 28.36 23.07L28.19 23.02H28.14L28 23C27.521 22.8143 27.084 22.5346 26.7147 22.1773C26.3455 21.8201 26.0515 21.3926 25.85 20.92C25.6603 20.4726 25.5822 19.9859 25.6222 19.5016C25.6623 19.0174 25.8194 18.5501 26.08 18.14H26.09ZM24 31.71C23.9 31.71 23.81 31.65 23.71 31.62H23.65L23.37 31.53L23.1 31.43H23.04L22.77 31.32L22.54 31.21L22.26 31L22.16 30.94L21.96 30.82H21.89L21.62 30.66C21.6011 30.6379 21.577 30.6207 21.55 30.61L21.38 30.49L21.3 30.43L21.13 30.3L21.05 30.24L20.9 30.11L20.82 30L20.64 29.84L20.44 29.64L20.37 29.58L20.23 29.43L20.17 29.37L19.98 29.17L19.79 28.94L19.74 28.88L19.61 28.71L19.55 28.64L19.41 28.45C19.35 28.37 19.3 28.29 19.25 28.21L19.2 28.14L19 27.92C18.9872 27.888 18.9704 27.8578 18.95 27.83L18.86 27.67C18.8374 27.64 18.8205 27.6061 18.81 27.57V27.52V27.43L18.74 27.29C18.2141 26.307 17.9516 25.2047 17.9778 24.0902C18.0041 22.9758 18.3184 21.887 18.89 20.93L19.89 19.62C19.385 20.7511 19.1919 21.9967 19.3308 23.2277C19.4698 24.4586 19.9356 25.6299 20.68 26.62L20.83 26.83V26.9L20.96 27.07V27.13L21.15 27.35L21.34 27.56L21.4 27.62L21.55 27.77L21.61 27.83L21.82 28.03C21.9 28.11 21.97 28.16 22.04 28.22L22.11 28.28L22.27 28.41L22.35 28.47L22.52 28.6L22.58 28.65L22.77 28.77L22.84 28.82L23.1 28.99H23.17L23.37 29.11L23.48 29.17L23.65 29.26H23.71L23.93 29.36H23.98L24.24 29.47H24.31L24.54 29.57L24.85 29.67H24.92L25.2 29.76C27.72 30.35 30.37 29.82 31.87 27.76C31.9 27.88 30.12 32.87 24 31.71ZM26.43 27.14L26.16 27.06H26.08L25.88 27H25.8L25.59 26.91H25.54L25.3 26.79L25.16 26.72H25.1L24.93 26.62L24.74 26.5H24.69L24.57 26.41L24.31 26.21H24.25L24 25.79C23.9221 25.725 23.8486 25.6548 23.78 25.58L23.72 25.52L23.52 25.3C23.3378 25.1152 23.1768 24.9106 23.04 24.69C22.8912 24.4624 22.7575 24.2252 22.64 23.98C22.2593 23.2585 22.073 22.4504 22.0993 21.6351C22.1256 20.8198 22.3636 20.0254 22.79 19.33L23.54 18.24C23.2475 18.7803 23.0674 19.3744 23.0107 19.9862C22.954 20.5981 23.0218 21.215 23.21 21.8C23.554 22.9243 24.2261 23.9203 25.14 24.66H25.2L25.45 24.86L25.58 24.94H25.63L25.82 25.06L25.98 25.16H26.05L26.17 25.23L26.42 25.35L26.62 25.44H26.71L26.9 25.51H26.98L27.25 25.59C28.1359 25.8766 29.09 25.8741 29.9744 25.5829C30.8588 25.2917 31.6277 24.7269 32.17 23.97C32.17 23.97 31.15 28 26.42 27.14H26.43Z" fill="#18333E"/>
<path d="M25 0C20.0555 0 15.222 1.46622 11.1108 4.21326C6.99953 6.96029 3.79521 10.8648 1.90302 15.4329C0.0108321 20.0011 -0.484251 25.0277 0.480379 29.8773C1.44501 34.7268 3.82603 39.1814 7.32234 42.6777C10.8187 46.174 15.2732 48.555 20.1228 49.5196C24.9723 50.4843 29.9989 49.9892 34.5671 48.097C39.1352 46.2048 43.0397 43.0005 45.7868 38.8893C48.5338 34.778 50 29.9445 50 25C50 18.3696 47.3661 12.0107 42.6777 7.32233C37.9893 2.63392 31.6304 0 25 0V0ZM25.09 39.64C22.1387 39.642 19.2531 38.7686 16.7982 37.1304C14.3433 35.4922 12.4294 33.1627 11.2986 30.4366C10.1678 27.7105 9.87091 24.7102 10.4455 21.8154C11.02 18.9205 12.4402 16.2611 14.5264 14.1735C16.6126 12.0859 19.2711 10.6639 22.1656 10.0874C25.0601 9.51092 28.0605 9.8058 30.7873 10.9348C33.5142 12.0637 35.845 13.9761 37.4848 16.4299C39.1247 18.8837 40 21.7687 40 24.72C40 28.6753 38.4295 32.4687 35.6336 35.2665C32.8377 38.0643 29.0453 39.6373 25.09 39.64Z" fill="#18333E"/>
</g>
<defs>
<clipPath id="clip0_11_33">
<rect width="50" height="50" fill="white"/>
</clipPath>
</defs>
</svg>
