<svg width="50" height="50" viewBox="0 0 50 50" fill="none" xmlns="http://www.w3.org/2000/svg">
<g clip-path="url(#clip0_11_27)">
<path d="M22.44 35.57C22.9142 35.6124 23.3918 35.5482 23.838 35.382C24.2841 35.2158 24.6873 34.9518 25.0182 34.6095C25.349 34.2671 25.599 33.8551 25.7499 33.4036C25.9007 32.952 25.9486 32.4724 25.89 32V24.37H23.48V32.07C23.48 33.22 22.94 33.51 22.29 33.51C21.64 33.51 21.22 32.97 20.86 32.33L19 33.47C19.2952 34.1258 19.7815 34.6771 20.3953 35.0519C21.0091 35.4266 21.7218 35.6072 22.44 35.57V35.57Z" fill="#18333E"/>
<path d="M31.27 33.47C30.8033 33.4862 30.3416 33.3687 29.9394 33.1313C29.5373 32.8939 29.2113 32.5465 29 32.13L27.12 33.22C27.5246 33.9661 28.1364 34.5793 28.8816 34.9856C29.6268 35.3919 30.4736 35.574 31.32 35.51C33.5 35.51 35.13 34.44 35.13 32.36C35.13 30.44 34.03 29.59 32.07 28.75L31.5 28.5C30.5 28.07 30.08 27.79 30.08 27.1C30.0793 26.9598 30.1081 26.821 30.1645 26.6927C30.2209 26.5644 30.3036 26.4493 30.4073 26.355C30.511 26.2607 30.6334 26.1893 30.7665 26.1454C30.8997 26.1014 31.0405 26.086 31.18 26.1C31.4991 26.0965 31.8117 26.1903 32.0761 26.369C32.3405 26.5477 32.5442 26.8026 32.66 27.1L34.46 26C34.1525 25.4121 33.6779 24.9284 33.096 24.6099C32.5141 24.2913 31.8509 24.1522 31.19 24.21C29.13 24.21 27.82 25.47 27.82 27.21C27.82 28.95 28.92 29.97 30.58 30.68L31.15 30.92C32.21 31.39 32.78 31.67 32.78 32.46C32.78 33.25 32.22 33.47 31.27 33.47Z" fill="#18333E"/>
<path d="M25 0C20.0555 0 15.222 1.46622 11.1107 4.21326C6.99952 6.96029 3.79521 10.8648 1.90302 15.4329C0.0108244 20.0011 -0.484259 25.0277 0.480372 29.8773C1.445 34.7268 3.82602 39.1814 7.32233 42.6777C10.8186 46.174 15.2732 48.555 20.1227 49.5196C24.9723 50.4843 29.9989 49.9892 34.5671 48.097C39.1352 46.2048 43.0397 43.0005 45.7867 38.8893C48.5338 34.778 50 29.9445 50 25C50 18.3696 47.3661 12.0107 42.6777 7.32233C37.9893 2.63392 31.6304 0 25 0V0ZM37.26 37.49H12.77V13H37.26V37.49Z" fill="#18333E"/>
</g>
<defs>
<clipPath id="clip0_11_27">
<rect width="50" height="50" fill="white"/>
</clipPath>
</defs>
</svg>
