<svg width="50" height="50" viewBox="0 0 50 50" fill="none" xmlns="http://www.w3.org/2000/svg">
<g clip-path="url(#clip0_11_52)">
<path d="M25 0C20.0555 0 15.222 1.46622 11.1107 4.21326C6.99952 6.96029 3.79521 10.8648 1.90302 15.4329C0.0108244 20.0011 -0.484259 25.0277 0.480372 29.8773C1.445 34.7268 3.82602 39.1814 7.32233 42.6777C10.8186 46.174 15.2732 48.555 20.1227 49.5196C24.9723 50.4843 29.9989 49.9892 34.5671 48.097C39.1352 46.2048 43.0397 43.0005 45.7867 38.8893C48.5338 34.778 50 29.9445 50 25C50 18.3696 47.3661 12.0107 42.6777 7.32233C37.9893 2.63392 31.6304 0 25 0V0ZM39 37.46C39 37.811 38.8613 38.1478 38.614 38.3969C38.3667 38.6461 38.031 38.7874 37.68 38.79H12.07C11.7181 38.7874 11.3813 38.6464 11.1324 38.3976C10.8836 38.1487 10.7426 37.8119 10.74 37.46V11.86C10.74 11.5073 10.8801 11.169 11.1296 10.9195C11.379 10.6701 11.7173 10.53 12.07 10.53H37.68C37.8542 10.53 38.0267 10.5645 38.1875 10.6314C38.3483 10.6984 38.4942 10.7965 38.6169 10.9201C38.7396 11.0438 38.8367 11.1905 38.9024 11.3518C38.9682 11.5131 39.0013 11.6858 39 11.86V37.46Z" fill="#18333E"/>
<path d="M20.51 16.69C19.23 16.69 18.01 16.69 17.19 16.76C17.09 16.76 16.91 16.82 16.91 16.91V30.8C16.91 30.91 16.96 30.95 17.06 30.95H19.06C19.17 30.95 19.21 30.9 19.21 30.8V25.8C19.56 25.8 19.73 25.8 20.21 25.8C23.12 25.8 25.48 24.39 25.48 21.11C25.45 18.66 24.06 16.69 20.51 16.69ZM20.24 23.8C19.72 23.8 19.49 23.8 19.24 23.8V18.8C19.47 18.8 19.95 18.8 20.47 18.8C22.18 18.8 23.19 19.63 23.19 21.27C23.15 23.27 21.74 23.8 20.24 23.8V23.8Z" fill="#18333E"/>
<path d="M30.47 24.68C29.11 23.97 28.88 23.68 28.88 23.18C28.88 22.68 29.23 22.24 30.24 22.24C31.0253 22.2275 31.7994 22.428 32.48 22.82C32.5009 22.8311 32.5245 22.8363 32.5482 22.8349C32.5719 22.8336 32.5947 22.8258 32.6143 22.8124C32.6339 22.799 32.6494 22.7805 32.6592 22.759C32.669 22.7374 32.6728 22.7135 32.67 22.69V20.92C32.6721 20.8692 32.6613 20.8187 32.6386 20.7732C32.6159 20.7277 32.5819 20.6888 32.54 20.66C31.8046 20.3892 31.0229 20.2668 30.24 20.3C27.99 20.3 26.7 21.68 26.7 23.35C26.7 24.84 27.45 25.73 29.28 26.61C30.57 27.28 30.87 27.69 30.87 28.16C30.87 28.63 30.45 29.16 29.43 29.16C28.5146 29.1617 27.6183 28.8976 26.85 28.4C26.76 28.33 26.7 28.4 26.7 28.5V30.4C26.7 30.5 26.7 30.57 26.8 30.61C27.6188 31.0048 28.5216 31.1936 29.43 31.16C31.55 31.16 33.12 30.05 33.12 27.98C33.12 26.61 32.49 25.66 30.47 24.68Z" fill="#18333E"/>
</g>
<defs>
<clipPath id="clip0_11_52">
<rect width="50" height="50" fill="white"/>
</clipPath>
</defs>
</svg>
