<svg width="50" height="50" viewBox="0 0 50 50" fill="none" xmlns="http://www.w3.org/2000/svg">
<g clip-path="url(#clip0_11_38)">
<path d="M34.28 16.34C33.61 13.71 29.28 12.84 25.12 14.34C22.5482 15.2043 20.1703 16.5631 18.12 18.34C15.84 20.46 15.48 22.34 15.63 23.09C16.16 25.82 19.9 27.6 21.44 28.93C20.98 29.15 17.66 30.82 16.88 32.54C16.1 34.26 17.01 35.65 17.64 35.82C18.5779 36.0421 19.5615 35.9692 20.4565 35.6112C21.3514 35.2532 22.114 34.6277 22.64 33.82C23.0698 33.1539 23.3387 32.3969 23.4255 31.609C23.5122 30.821 23.4145 30.0237 23.14 29.28C23.8783 29.0937 24.6452 29.0495 25.4 29.15C28 29.45 28.52 31.08 28.4 31.75C28.3503 31.9906 28.2507 32.2181 28.1078 32.4179C27.9648 32.6176 27.7816 32.7853 27.57 32.91C27.39 33.03 27.33 33.06 27.35 33.14C27.37 33.22 27.46 33.25 27.61 33.23C27.9973 33.0946 28.336 32.8477 28.5833 32.5203C28.8307 32.1929 28.9756 31.7996 29 31.39C29 29.8 27.53 28.02 24.83 28.06C24.0446 28.0295 23.2598 28.1343 22.51 28.37C22.4773 28.3172 22.4328 28.2727 22.38 28.24C20.72 26.45 17.62 25.24 17.75 22.8C17.75 21.93 18.1 19.63 23.68 16.85C28.26 14.57 31.91 15.21 32.54 16.59C33.44 18.59 30.59 22.26 25.83 22.8C25.305 22.9065 24.7627 22.8935 24.2434 22.762C23.724 22.6304 23.241 22.3837 22.83 22.04C22.57 21.76 22.53 21.74 22.44 21.8C22.35 21.86 22.38 22.11 22.44 22.26C22.6233 22.5875 22.8696 22.8754 23.1649 23.1072C23.4601 23.3389 23.7983 23.5098 24.16 23.61C26.0251 24.0156 27.9705 23.8232 29.72 23.06C32.59 21.95 34.83 18.85 34.18 16.26L34.28 16.34ZM21.91 29.83L22.04 29.76C22.2591 30.4928 22.2451 31.2755 22 32L21.92 32.22L21.83 32.44C21.6502 32.8053 21.4177 33.1422 21.14 33.44C20.28 34.38 19.08 34.73 18.56 34.44C18.04 34.15 18.28 32.79 19.28 31.74C20.0496 30.9855 20.9339 30.3577 21.9 29.88L21.91 29.83Z" fill="#18333E"/>
<path d="M25 0C20.0555 0 15.222 1.46622 11.1107 4.21326C6.99951 6.96029 3.7952 10.8648 1.90301 15.4329C0.0108168 20.0011 -0.484267 25.0277 0.480364 29.8773C1.44499 34.7268 3.82601 39.1814 7.32233 42.6777C10.8186 46.174 15.2732 48.555 20.1227 49.5196C24.9723 50.4843 29.9989 49.9892 34.5671 48.097C39.1352 46.2048 43.0397 43.0005 45.7867 38.8893C48.5338 34.778 50 29.9445 50 25C50 18.3696 47.3661 12.0107 42.6777 7.32233C37.9893 2.63392 31.6304 0 25 0V0ZM25 39.64C22.0685 39.642 19.2022 38.7745 16.7637 37.1472C14.3253 35.52 12.4242 33.2061 11.301 30.4983C10.1777 27.7905 9.88284 24.8104 10.4535 21.9349C11.0242 19.0594 12.4349 16.4178 14.5071 14.3442C16.5794 12.2706 19.22 10.8581 22.0951 10.2855C24.9701 9.71285 27.9505 10.0058 30.6591 11.1272C33.3676 12.2485 35.6828 14.1481 37.3117 16.5854C38.9406 19.0228 39.81 21.8885 39.81 24.82C39.8074 28.748 38.2465 32.5144 35.4699 35.2929C32.6934 38.0713 28.928 39.6347 25 39.64Z" fill="#18333E"/>
</g>
<defs>
<clipPath id="clip0_11_38">
<rect width="50" height="50" fill="white"/>
</clipPath>
</defs>
</svg>
