<svg width="32" height="32" viewBox="0 0 32 32" fill="none" xmlns="http://www.w3.org/2000/svg">
<path d="M0.167999 15.936C0.167999 12.7921 1.10028 9.71874 2.84696 7.10466C4.59363 4.49057 7.07625 2.45314 9.98086 1.25001C12.8855 0.0468808 16.0816 -0.267913 19.1652 0.345438C22.2487 0.958788 25.0811 2.47274 27.3042 4.69583C29.5273 6.91893 31.0412 9.75132 31.6546 12.8348C32.2679 15.9184 31.9531 19.1145 30.75 22.0191C29.5469 24.9237 27.5094 27.4064 24.8953 29.153C22.2813 30.8997 19.2079 31.832 16.064 31.832C11.8481 31.832 7.80491 30.1572 4.82383 27.1762C1.84275 24.1951 0.167999 20.1519 0.167999 15.936V15.936ZM2.28747 15.936C2.28747 18.6607 3.09544 21.3243 4.60923 23.5898C6.12301 25.8554 8.27461 27.6211 10.7919 28.6639C13.3093 29.7066 16.0793 29.9794 18.7517 29.4478C21.4241 28.9163 23.8788 27.6042 25.8055 25.6775C27.7322 23.7508 29.0442 21.2961 29.5758 18.6237C30.1074 15.9513 29.8346 13.1813 28.7919 10.6639C27.7491 8.14662 25.9834 5.99502 23.7178 4.48123C21.4523 2.96745 18.7887 2.15947 16.064 2.15947C12.4102 2.15947 8.90612 3.61092 6.32252 6.19452C3.73892 8.77812 2.28747 12.2822 2.28747 15.936V15.936Z" fill="white"/>
<path d="M10.7008 19.87L16.2908 14.29L21.8808 19.87C22.0682 20.0562 22.3216 20.1608 22.5858 20.1608C22.85 20.1608 23.1034 20.0562 23.2908 19.87V19.87C23.477 19.6826 23.5816 19.4292 23.5816 19.165C23.5816 18.9008 23.477 18.6474 23.2908 18.46L16.9308 12.1C16.7604 11.9315 16.5304 11.8369 16.2908 11.8369C16.0511 11.8369 15.8212 11.9315 15.6508 12.1L9.29079 18.46C9.10454 18.6474 9 18.9008 9 19.165C9 19.4292 9.10454 19.6826 9.29079 19.87V19.87C9.47816 20.0562 9.73161 20.1608 9.99579 20.1608C10.26 20.1608 10.5134 20.0562 10.7008 19.87V19.87Z" fill="white"/>
</svg>
