<svg width="11" height="81" viewBox="0 0 11 81" fill="none" xmlns="http://www.w3.org/2000/svg">
<path d="M9.358 1.638L6.124 1.638L6.124 4.438L5.172 4.438L5.172 1.638L1 1.638L1 0.7L10.31 0.7L10.31 5.796L9.358 5.796L9.358 1.638ZM0.929999 12.1454C0.93 11.2961 1.14 10.5168 1.56 9.80744C1.98 9.0981 2.54467 8.53344 3.254 8.11344C3.96333 7.69344 4.74267 7.48344 5.592 7.48344C6.44133 7.48344 7.22067 7.69344 7.93 8.11344C8.64867 8.53344 9.218 9.0981 9.638 9.80744C10.058 10.5261 10.268 11.3054 10.268 12.1454C10.268 12.9854 10.058 13.7648 9.638 14.4834C9.218 15.2021 8.64867 15.7714 7.93 16.1914C7.21133 16.6114 6.432 16.8214 5.592 16.8214C4.752 16.8214 3.97267 16.6114 3.254 16.1914C2.54467 15.7714 1.98 15.2021 1.56 14.4834C1.14 13.7741 0.929999 12.9948 0.929999 12.1454ZM1.882 12.1454C1.882 12.8174 2.04533 13.4381 2.372 14.0074C2.708 14.5768 3.16067 15.0248 3.73 15.3514C4.29933 15.6874 4.92 15.8554 5.592 15.8554C6.264 15.8554 6.88467 15.6874 7.454 15.3514C8.02333 15.0248 8.47133 14.5768 8.798 14.0074C9.134 13.4381 9.302 12.8174 9.302 12.1454C9.302 11.4734 9.134 10.8528 8.798 10.2834C8.47133 9.7141 8.02333 9.26144 7.454 8.92544C6.88467 8.59877 6.264 8.43544 5.592 8.43544C4.92 8.43544 4.29933 8.59877 3.73 8.92544C3.16067 9.26144 2.708 9.7141 2.372 10.2834C2.04533 10.8528 1.882 11.4734 1.882 12.1454ZM1.952 23.4864L0.999999 23.4864L0.999999 19.4824L10.31 19.4824L10.31 20.4484L1.952 20.4484L1.952 23.4864ZM1.952 30.1501L0.999999 30.1501L0.999999 26.1461L10.31 26.1461L10.31 27.1121L1.952 27.1121L1.952 30.1501ZM0.929998 36.4978C0.929998 35.6484 1.14 34.8691 1.56 34.1598C1.98 33.4504 2.54467 32.8858 3.254 32.4658C3.96333 32.0458 4.74267 31.8358 5.592 31.8358C6.44133 31.8358 7.22067 32.0458 7.93 32.4658C8.64867 32.8858 9.218 33.4504 9.638 34.1598C10.058 34.8784 10.268 35.6578 10.268 36.4978C10.268 37.3378 10.058 38.1171 9.638 38.8358C9.218 39.5544 8.64867 40.1238 7.93 40.5438C7.21133 40.9638 6.432 41.1738 5.592 41.1738C4.752 41.1738 3.97266 40.9638 3.254 40.5438C2.54466 40.1238 1.98 39.5544 1.56 38.8358C1.14 38.1264 0.929998 37.3471 0.929998 36.4978ZM1.882 36.4978C1.882 37.1698 2.04533 37.7904 2.372 38.3598C2.708 38.9291 3.16067 39.3771 3.73 39.7038C4.29933 40.0398 4.92 40.2078 5.592 40.2078C6.264 40.2078 6.88467 40.0398 7.454 39.7038C8.02333 39.3771 8.47133 38.9291 8.798 38.3598C9.134 37.7904 9.302 37.1698 9.302 36.4978C9.302 35.8258 9.134 35.2051 8.798 34.6358C8.47133 34.0664 8.02333 33.6138 7.454 33.2778C6.88467 32.9511 6.264 32.7878 5.592 32.7878C4.92 32.7878 4.29933 32.9511 3.73 33.2778C3.16067 33.6138 2.708 34.0664 2.372 34.6358C2.04533 35.2051 1.882 35.8258 1.882 36.4978ZM2.4 46.7248L6.894 48.2928L10.324 47.0608L10.324 48.0828L6.894 49.3148L2.4 50.9388L10.324 53.6828L10.324 54.7048L0.999998 51.4568L0.999998 50.4208L5.466 48.8108L0.999998 47.2568L0.999998 46.2068L10.324 42.8608L10.324 43.8828L2.4 46.7248ZM0.901997 68.3125C0.901997 67.7245 1.04666 67.1831 1.336 66.6885C1.63466 66.1938 2.03133 65.7971 2.526 65.4985C3.02066 65.2091 3.562 65.0645 4.15 65.0645L10.31 65.0645L10.31 66.0025L4.15 66.0025C3.73 66.0025 3.34266 66.1051 2.988 66.3105C2.64266 66.5158 2.36733 66.7958 2.162 67.1505C1.966 67.5051 1.868 67.8925 1.868 68.3125C1.868 68.7325 1.966 69.1198 2.162 69.4745C2.36733 69.8385 2.64266 70.1231 2.988 70.3285C3.34266 70.5338 3.73 70.6365 4.15 70.6365L10.31 70.6365L10.31 71.5605L4.15 71.5605C3.562 71.5605 3.02066 71.4111 2.526 71.1125C2.03133 70.8231 1.63466 70.4311 1.336 69.9365C1.04666 69.4418 0.901997 68.9005 0.901997 68.3125ZM7.608 79.6028C7.96266 79.5561 8.27066 79.4441 8.532 79.2668C9.092 78.9028 9.372 78.3008 9.372 77.4608C9.372 76.7608 9.21333 76.2521 8.896 75.9348C8.59733 75.6455 8.19133 75.5008 7.678 75.5008C7.10866 75.5008 6.71666 75.6595 6.502 75.9768C6.28733 76.2941 6.15666 76.7375 6.11 77.3068C6.06333 77.8481 5.98866 78.3055 5.886 78.6788C5.79266 79.0521 5.662 79.3648 5.494 79.6168C5.08333 80.2795 4.43933 80.6108 3.562 80.6108C3.21666 80.6108 2.89 80.5408 2.582 80.4008C2.274 80.2701 1.99866 80.0788 1.756 79.8268C1.196 79.2575 0.915997 78.4781 0.915997 77.4888C0.915997 76.4901 1.19133 75.7015 1.742 75.1228C2.19933 74.6281 2.81533 74.3295 3.59 74.2268L3.59 75.1928C3.12333 75.2768 2.74066 75.4728 2.442 75.7808C2.06866 76.1821 1.882 76.7561 1.882 77.5028C1.882 78.1375 2.036 78.6508 2.344 79.0428C2.66133 79.4441 3.06733 79.6448 3.562 79.6448C3.87933 79.6448 4.14066 79.5795 4.346 79.4488C4.56066 79.3275 4.73333 79.0895 4.864 78.7348C4.99466 78.3801 5.088 77.8761 5.144 77.2228C5.30266 75.4308 6.14733 74.5348 7.678 74.5348C8.06066 74.5348 8.41066 74.5955 8.728 74.7168C9.05466 74.8475 9.33466 75.0295 9.568 75.2628C10.0813 75.7761 10.338 76.5041 10.338 77.4468L10.338 77.4608C10.3287 78.4221 10.0627 79.1548 9.54 79.6588C9.02666 80.1721 8.378 80.4755 7.594 80.5688L7.594 79.6028L7.608 79.6028Z" fill="#02111A"/>
</svg>