<svg width="35" height="35" viewBox="0 0 35 35" fill="none" xmlns="http://www.w3.org/2000/svg">
<path fill-rule="evenodd" clip-rule="evenodd" d="M15.7138 7.44599C16.7393 8.58256 16.4141 9.87017 15.5074 11.0919C15.2925 11.3816 15.0447 11.667 14.7454 11.9815C14.6018 12.1324 14.4898 12.2459 14.2555 12.4804C13.7234 13.013 13.2762 13.4605 12.9137 13.8229C12.7379 13.9986 13.9381 16.3967 16.2673 18.728C18.5953 21.058 20.9935 22.2589 21.1701 22.0822L22.511 20.7407C23.2494 20.0016 23.6405 19.645 24.1779 19.2925C25.295 18.5597 26.5135 18.3605 27.5412 19.2794C30.8966 21.6793 32.7954 23.152 33.7256 24.1185C35.5401 26.0036 35.3023 28.9052 33.736 30.5606C33.1928 31.1346 32.5041 31.8236 31.6907 32.6076C26.7705 37.53 16.3866 34.5345 8.42848 26.5693C0.468526 18.6023 -2.52578 8.21847 2.38411 3.30644C3.26558 2.41121 3.5562 2.12076 4.41468 1.27496C6.013 -0.29976 9.04884 -0.546329 10.8943 1.27652C11.8651 2.23534 13.4126 4.22636 15.7138 7.44599ZM24.9848 23.2151L23.6436 24.5569C21.3638 26.8376 17.4814 24.8935 13.7932 21.2021C10.1026 17.5082 8.16041 13.6276 10.4409 11.3475C10.8029 10.9855 11.2498 10.5385 11.7815 10.0063C11.996 9.79164 12.0941 9.69219 12.2119 9.56841C12.3723 9.39978 12.5042 9.25167 12.6098 9.12061C10.5704 6.28005 9.18404 4.50512 8.43668 3.76691C8.05071 3.38568 7.18645 3.45587 6.86916 3.76847C6.02295 4.60219 5.7448 4.88017 4.86689 5.77172C1.70934 8.93069 4.12655 17.3133 10.9025 24.0952C17.6764 30.875 26.0585 33.2931 29.2401 30.1105C30.0408 29.3383 30.6934 28.6855 31.1956 28.1547C31.5585 27.7711 31.6234 26.9797 31.2059 26.546C30.5106 25.8236 28.8082 24.4964 25.8688 22.3858C25.6546 22.5582 25.3912 22.8083 24.9848 23.2151ZM24.5084 8.0259L32.021 0.514094L34.4959 2.98872L24.5084 12.9751L18.021 6.48836L20.4959 4.01374L24.5084 8.0259Z" fill="#02111A"/>
</svg>