<svg width="35" height="36" viewBox="0 0 35 36" fill="none" xmlns="http://www.w3.org/2000/svg">
<path fill-rule="evenodd" clip-rule="evenodd" d="M15.7138 7.84602C16.7393 8.98258 16.4141 10.2702 15.5074 11.4919C15.2925 11.7816 15.0447 12.067 14.7454 12.3815C14.6018 12.5324 14.4898 12.646 14.2555 12.8805C13.7234 13.413 13.2762 13.8605 12.9137 14.2229C12.7379 14.3987 13.9381 16.7967 16.2673 19.128C18.5953 21.4581 20.9935 22.659 21.1701 22.4823L22.511 21.1407C23.2494 20.4016 23.6405 20.0451 24.1779 19.6925C25.295 18.9597 26.5135 18.7606 27.5412 19.6794C30.8966 22.0793 32.7954 23.5521 33.7256 24.5185C35.5401 26.4036 35.3023 29.3053 33.736 30.9606C33.1928 31.5346 32.5041 32.2236 31.6907 33.0077C26.7705 37.9301 16.3866 34.9345 8.42848 26.9693C0.468526 19.0023 -2.52578 8.61849 2.38411 3.70646C3.26558 2.81124 3.5562 2.52079 4.41468 1.67499C6.013 0.100265 9.04884 -0.146304 10.8943 1.67654C11.8651 2.63537 13.4126 4.62638 15.7138 7.84602ZM24.9848 23.6151L23.6436 24.9569C21.3638 27.2377 17.4814 25.2935 13.7932 21.6021C10.1026 17.9082 8.16041 14.0276 10.4409 11.7475C10.8029 11.3856 11.2498 10.9385 11.7815 10.4064C11.996 10.1917 12.0941 10.0922 12.2119 9.96844C12.3723 9.7998 12.5042 9.6517 12.6098 9.52064C10.5704 6.68008 9.18404 4.90514 8.43668 4.16694C8.05071 3.7857 7.18645 3.85589 6.86916 4.1685C6.02295 5.00222 5.7448 5.2802 4.86689 6.17175C1.70934 9.33071 4.12655 17.7133 10.9025 24.4952C17.6764 31.275 26.0585 33.6932 29.2401 30.5106C30.0408 29.7383 30.6934 29.0855 31.1956 28.5547C31.5585 28.1712 31.6234 27.3797 31.2059 26.946C30.5106 26.2236 28.8082 24.8964 25.8688 22.7858C25.6546 22.9582 25.3912 23.2083 24.9848 23.6151ZM24.5084 8.42592L32.021 0.914118L34.4959 3.38874L24.5084 13.3752L18.021 6.88839L20.4959 4.41376L24.5084 8.42592Z" fill="#3D85C6"/>
</svg>
