<svg width="115" height="115" viewBox="0 0 115 115" fill="none" xmlns="http://www.w3.org/2000/svg">
<path d="M25.1362 17.0856C24.7857 16.7885 24.4136 16.5926 24.02 16.498C23.1917 16.2815 22.3799 16.5386 21.5848 17.2695C20.9222 17.8785 20.5777 18.4722 20.5515 19.0505C20.5356 19.5866 20.7494 20.0991 21.1928 20.588C21.6846 21.1301 22.1734 21.3654 22.6593 21.2937C23.1451 21.222 23.6776 20.9607 24.2569 20.5098C24.8096 20.0832 25.307 19.7564 25.7491 19.5294C26.1831 19.2934 26.592 19.1458 26.9756 19.0865C27.9577 18.901 28.8276 19.226 29.5855 20.0615C29.8838 20.3903 30.0997 20.7623 30.2333 21.1774C30.3757 21.5844 30.4324 22.0131 30.4035 22.4634C30.3483 23.4921 29.8525 24.4368 28.916 25.2976C27.9706 26.1665 26.9862 26.5905 25.9628 26.5696C25.0995 26.5645 24.2846 26.2377 23.5182 25.5893L24.4327 24.7489C24.9153 25.1202 25.4314 25.314 25.9809 25.3305C26.6834 25.3368 27.3879 25.0151 28.0947 24.3655C28.6955 23.8133 29.0484 23.22 29.1534 22.5856C29.2592 21.9343 29.0984 21.373 28.6711 20.902C28.397 20.5998 28.1094 20.4078 27.8083 20.3259C27.508 20.2271 27.1336 20.2697 26.685 20.4539C26.2364 20.638 25.6786 20.9877 25.0118 21.5028C23.1785 22.9109 21.6007 22.8861 20.2784 21.4285C19.9478 21.064 19.7029 20.678 19.5436 20.2702C19.3851 19.8454 19.3155 19.4205 19.3349 18.9952C19.3773 18.0598 19.8447 17.1819 20.7371 16.3618L20.7503 16.3496C21.6684 15.522 22.5917 15.1379 23.5203 15.1971C24.4496 15.2393 25.2971 15.5931 26.0627 16.2585L25.1483 17.0989L25.1362 17.0856Z" fill="#02111A"/>
<path d="M37.8183 19.2109C36.8593 19.7435 35.8496 19.9974 34.789 19.9727C33.7285 19.9479 32.743 19.6633 31.8327 19.1187C30.9223 18.5741 30.2035 17.8208 29.6763 16.8588C29.149 15.8969 28.8993 14.8831 28.9271 13.8175C28.9491 12.7414 29.2326 11.7452 29.7773 10.8289C30.3267 9.89642 31.0757 9.16676 32.0243 8.63995C32.7957 8.21156 33.6194 7.96549 34.4955 7.90176C35.3658 7.82757 36.2093 7.95243 37.0258 8.27633L36.591 9.41797C35.9427 9.17789 35.2684 9.08869 34.568 9.15036C33.8722 9.19578 33.2221 9.38637 32.6175 9.72214C31.867 10.139 31.2746 10.7203 30.8403 11.4661C30.4108 12.1956 30.1861 12.9887 30.1661 13.8454C30.1462 14.7021 30.3425 15.5068 30.7551 16.2597C31.1678 17.0125 31.7394 17.6088 32.47 18.0487C33.1948 18.4781 33.9783 18.7044 34.8205 18.7277C35.6731 18.7452 36.4746 18.5456 37.2252 18.1287C37.8298 17.793 38.3395 17.3462 38.7544 16.7884C39.174 16.2144 39.4558 15.5874 39.5998 14.9074L40.7911 15.1459C40.6221 16.0035 40.2772 16.7883 39.7565 17.5003C39.2357 18.2123 38.5897 18.7825 37.8183 19.2109Z" fill="#02111A"/>
<path d="M47.2448 3.17021L50.338 14.6665L49.1807 14.982L47.7946 9.83029L42.4402 11.29L43.8263 16.4418L42.6518 16.762L39.5587 5.26561L40.7332 4.94542L42.1239 10.1144L47.4783 8.65473L46.0875 3.4857L47.2448 3.17021Z" fill="#02111A"/>
<path d="M51.9854 3.68122L52.2782 7.86499L55.8513 7.6116L55.9317 8.76079L52.3587 9.01418L52.6502 13.18L57.9649 12.8031L58.0504 14.0241L51.5148 14.4876L50.679 2.5468L57.2146 2.08331L57.3001 3.30432L51.9854 3.68122Z" fill="#02111A"/>
<path d="M59.3559 14.0237L60.9415 2.141L63.9382 2.54617C65.0203 2.69248 65.9776 3.09436 66.81 3.75181C67.6423 4.40926 68.2657 5.22616 68.6802 6.2025C69.0948 7.17884 69.2298 8.20821 69.0854 9.29062C68.9409 10.373 68.5408 11.33 67.8851 12.1617C67.2293 12.9933 66.4138 13.6157 65.4387 14.0287C64.4635 14.4418 63.4348 14.5752 62.3526 14.4289L59.3559 14.0237ZM62.5145 13.2156C63.3707 13.3314 64.1893 13.2301 64.9703 12.9119C65.7528 12.5818 66.4006 12.0821 66.9136 11.4128C67.4385 10.7451 67.7581 9.98303 67.8724 9.12662C67.9867 8.27021 67.8782 7.45028 67.5469 6.66683C67.2275 5.88499 66.7329 5.23687 66.063 4.72248C65.3947 4.1962 64.6325 3.87518 63.7763 3.75942L62.0104 3.52066L60.7486 12.9768L62.5145 13.2156Z" fill="#02111A"/>
<path d="M73.0285 17.2058C72.3215 16.938 71.7357 16.5173 71.2712 15.9435C70.8109 15.3586 70.5125 14.7002 70.3761 13.9685C70.2509 13.241 70.3207 12.5231 70.5854 11.815L73.3585 4.39636L74.4863 4.82353L71.7132 12.2422C71.5241 12.748 71.4732 13.2612 71.5604 13.7819C71.6518 14.2913 71.8645 14.7504 72.1985 15.1592C72.5367 15.5567 72.9583 15.8511 73.4633 16.0424C73.9683 16.2337 74.4782 16.2921 74.9928 16.2175C75.5229 16.136 75.9891 15.9341 76.3915 15.6117C76.798 15.278 77.0959 14.8583 77.2849 14.3525L80.0581 6.93387L81.169 7.35467L78.3959 14.7733C78.1312 15.4814 77.708 16.0654 77.1262 16.5251C76.5556 16.9891 75.9057 17.2883 75.1765 17.4227C74.4514 17.5459 73.7354 17.4736 73.0285 17.2058Z" fill="#02111A"/>
<path d="M82.9358 20.9088L82.3048 21.9576L77.9092 19.278L84.0801 9.02124L85.1406 9.66773L79.6007 18.8756L82.9358 20.9088Z" fill="#02111A"/>
<path d="M91.1937 15.315L88.4747 18.5082L91.1868 20.8482L90.44 21.7253L87.7279 19.3854L85.0206 22.5649L89.0546 26.0454L88.2611 26.9773L83.3003 22.6973L91.0605 13.5835L96.0213 17.8635L95.2278 18.7955L91.1937 15.315Z" fill="#02111A"/>
<path d="M108.45 36.1244L97.8612 41.7062L97.1883 40.4128L102.956 30.556L94.4054 35.0634L93.8321 33.9616L104.421 28.3798L105.019 29.5295L99.0956 39.6719L107.885 35.0386L108.45 36.1244Z" fill="#02111A"/>
<path d="M99.561 48.4936C99.3223 47.4231 99.3678 46.3811 99.6974 45.3675C100.027 44.3539 100.58 43.4815 101.355 42.7502C102.13 42.0189 103.053 41.5324 104.123 41.2907C105.193 41.0489 106.233 41.0918 107.245 41.4193C108.268 41.7441 109.144 42.2937 109.872 43.0682C110.603 43.8545 111.087 44.777 111.323 45.8357C111.559 46.8944 111.514 47.9365 111.187 48.9618C110.86 49.9872 110.303 50.8668 109.516 51.6007C108.728 52.3346 107.806 52.8212 106.748 53.0603C105.69 53.2993 104.649 53.2565 103.626 52.9317C102.614 52.6042 101.743 52.0473 101.012 51.2611C100.283 50.4866 99.7998 49.5641 99.561 48.4936ZM100.76 48.2226C100.949 49.0696 101.329 49.8054 101.901 50.43C102.484 51.052 103.18 51.4878 103.989 51.7375C104.801 51.9989 105.63 52.034 106.476 51.8427C107.323 51.6514 108.057 51.263 108.68 50.6775C109.305 50.1037 109.744 49.4115 109.995 48.601C110.258 47.7877 110.295 46.9576 110.106 46.1106C109.918 45.2637 109.531 44.5292 108.948 43.9072C108.377 43.2826 107.685 42.8396 106.874 42.5782C106.065 42.3285 105.237 42.2993 104.39 42.4906C103.544 42.6818 102.808 43.0644 102.183 43.6382C101.56 44.2237 101.117 44.9231 100.854 45.7363C100.603 46.5469 100.571 47.3756 100.76 48.2226Z" fill="#02111A"/>
<path d="M102.393 59.1016L108.011 61.583L112.546 60.354L112.442 61.6681L107.906 62.897L101.962 64.5198L111.87 68.8684L111.765 70.1824L100.11 65.0409L100.215 63.7089L106.122 62.1011L100.539 59.6407L100.646 58.2906L112.975 54.9538L112.871 56.2678L102.393 59.1016Z" fill="#02111A"/>
<path d="M87.4817 99.9439C87.8145 100.263 88.175 100.481 88.5632 100.6C89.3791 100.867 90.2072 100.659 91.0474 99.9756C91.7475 99.4063 92.1283 98.8331 92.1897 98.256C92.2382 97.7204 92.0553 97.1946 91.6412 96.6784C91.1818 96.106 90.7069 95.8409 90.2163 95.8831C89.7257 95.9253 89.1768 96.1545 88.5697 96.5706C87.9906 96.9639 87.4729 97.2607 87.0167 97.4611C86.5679 97.6708 86.1498 97.7937 85.7622 97.8297C84.768 97.9557 83.9171 97.5777 83.2092 96.6955C82.9306 96.3483 82.7371 95.963 82.6287 95.5394C82.5109 95.1235 82.4801 94.691 82.5364 94.2421C82.6541 93.2161 83.2077 92.3008 84.1973 91.4962C85.1962 90.6841 86.2072 90.3196 87.2303 90.4026C88.094 90.4602 88.8897 90.8367 89.6174 91.5321L88.6512 92.3176C88.1906 91.9167 87.6859 91.6914 87.1368 91.6416C86.4342 91.5926 85.7095 91.8717 84.9626 92.4789C84.3278 92.995 83.9386 93.5673 83.795 94.1958C83.6496 94.8412 83.7764 95.4126 84.1755 95.91C84.4315 96.229 84.7077 96.4387 85.004 96.5389C85.2986 96.656 85.676 96.6361 86.1361 96.479C86.5963 96.322 87.1757 96.006 87.8744 95.531C89.7948 94.2332 91.3725 94.3538 92.6074 95.8929C92.9161 96.2776 93.1378 96.6789 93.2725 97.0966C93.4053 97.5313 93.4492 97.9608 93.404 98.3852C93.3047 99.3188 92.7836 100.169 91.8407 100.935L91.8267 100.947C90.8576 101.719 89.9102 102.048 88.9844 101.932C88.0568 101.833 87.23 101.428 86.5042 100.715L87.4704 99.9298L87.4817 99.9439Z" fill="#02111A"/>
<path d="M74.9464 97.1165C75.9412 96.6378 76.9707 96.442 78.035 96.5291C79.0993 96.6162 80.0729 96.96 80.9559 97.5606C81.8389 98.1611 82.5172 98.9599 82.9908 99.9572C83.4644 100.954 83.6561 101.987 83.5659 103.056C83.4808 104.136 83.1378 105.12 82.5369 106.008C81.9302 106.913 81.1349 107.602 80.1509 108.075C79.3507 108.46 78.5086 108.659 77.6245 108.672C76.7456 108.695 75.9053 108.52 75.1037 108.147L75.6074 107.026C76.2448 107.305 76.9172 107.434 77.6247 107.413C78.3265 107.409 78.9909 107.255 79.6181 106.954C80.3967 106.579 81.0259 106.03 81.5059 105.306C81.9801 104.598 82.2523 103.815 82.3224 102.956C82.3925 102.096 82.2423 101.276 81.8716 100.496C81.501 99.7153 80.9614 99.0827 80.253 98.5979C79.5497 98.124 78.7756 97.8507 77.9306 97.7779C77.0749 97.7102 76.2578 97.8637 75.4792 98.2384C74.852 98.5402 74.3137 98.959 73.8641 99.495C73.4089 100.047 73.0891 100.66 72.9047 101.335L71.7215 101.025C71.9415 100.174 72.3339 99.4057 72.8988 98.721C73.4637 98.0364 74.1462 97.5015 74.9464 97.1165Z" fill="#02111A"/>
<path d="M64.6614 112.708L62.1635 100.974L63.345 100.719L64.4644 105.978L69.9312 104.798L68.8119 99.5402L70.011 99.2816L72.509 111.016L71.3098 111.274L70.1867 105.998L64.7198 107.178L65.843 112.453L64.6614 112.708Z" fill="#02111A"/>
<path d="M59.9563 111.646L59.8887 107.452L56.3072 107.511L56.2886 106.359L59.8701 106.301L59.8028 102.125L54.4755 102.212L54.4558 100.988L61.0069 100.881L61.1999 112.85L54.6488 112.957L54.629 111.733L59.9563 111.646Z" fill="#02111A"/>
<path d="M53.1296 100.864L50.8663 112.615L47.9034 112.037C46.8335 111.828 45.9028 111.372 45.1112 110.668C44.3196 109.965 43.7454 109.114 43.3885 108.117C43.0316 107.12 42.9562 106.086 43.1624 105.015C43.3686 103.945 43.8223 103.014 44.5235 102.224C45.2248 101.433 46.0732 100.86 47.0687 100.505C48.0642 100.15 49.0969 100.077 50.1668 100.286L53.1296 100.864ZM49.9357 101.486C49.0892 101.321 48.2677 101.374 47.4712 101.646C46.6724 101.929 45.9982 102.39 45.4485 103.027C44.887 103.662 44.5247 104.403 44.3616 105.25C44.1985 106.096 44.2595 106.92 44.5445 107.72C44.8178 108.518 45.2734 109.193 45.9113 109.744C46.5469 110.308 47.288 110.672 48.1345 110.837L49.8805 111.178L51.6816 101.827L49.9357 101.486Z" fill="#02111A"/>
<path d="M39.6821 96.9029C40.3718 97.2123 40.9316 97.6672 41.3613 98.2677C41.7861 98.8791 42.045 99.5542 42.1379 100.293C42.2198 101.027 42.1077 101.739 41.8017 102.431L38.5955 109.673L37.4951 109.179L40.7013 101.937C40.9199 101.443 41.0011 100.934 40.9448 100.409C40.8837 99.8948 40.6985 99.4237 40.3894 98.9957C40.0753 98.5786 39.672 98.2596 39.1793 98.0385C38.6866 97.8175 38.1812 97.7289 37.6631 97.7727C37.1292 97.8226 36.652 97.9964 36.2314 98.2944C35.8059 98.6033 35.4839 99.0046 35.2652 99.4984L32.059 106.74L30.9751 106.254L34.1813 99.0122C34.4874 98.3209 34.9443 97.7631 35.5521 97.3387C36.149 96.9094 36.8153 96.6493 37.5511 96.5585C38.2819 96.4787 38.9923 96.5934 39.6821 96.9029Z" fill="#02111A"/>
<path d="M30.0177 92.5602L30.7123 91.5544L34.9246 94.5018L28.1319 104.338L27.1157 103.627L33.2137 94.7965L30.0177 92.5602Z" fill="#02111A"/>
<path d="M21.4297 97.7053L24.3315 94.6773L21.7617 92.1819L22.5588 91.3502L25.1286 93.8455L28.018 90.8305L24.1956 87.1188L25.0425 86.2351L29.743 90.7995L21.4609 99.4417L16.7604 94.8772L17.6073 93.9935L21.4297 97.7053Z" fill="#02111A"/>
<path d="M5.42818 75.9081L16.3307 70.9667L16.926 72.2976L10.5842 81.7923L19.3881 77.8021L19.8953 78.9358L8.99279 83.8772L8.46361 82.6941L14.9778 72.9237L5.92796 77.0254L5.42818 75.9081Z" fill="#02111A"/>
<path d="M15.0921 64.105C15.2678 65.1828 15.1627 66.2157 14.7766 67.2038C14.3906 68.192 13.7911 69.0268 12.9782 69.7084C12.1653 70.3901 11.2202 70.8199 10.1428 70.9978C9.06537 71.1758 8.03332 71.0727 7.04663 70.6883C6.04809 70.306 5.20905 69.7087 4.52952 68.8966C3.84806 68.0727 3.42043 67.1278 3.24665 66.0618C3.07286 64.9959 3.17801 63.963 3.56211 62.963C3.94621 61.963 4.55063 61.1212 5.37538 60.4377C6.20013 59.7541 7.14528 59.3243 8.21084 59.1483C9.2764 58.9723 10.3084 59.0754 11.307 59.4578C12.2937 59.8421 13.1278 60.4462 13.8092 61.2702C14.4888 62.0823 14.9164 63.0272 15.0921 64.105ZM13.8845 64.3045C13.7454 63.4517 13.4098 62.6984 12.8777 62.0444C12.3337 61.3923 11.6668 60.9187 10.877 60.6235C10.0852 60.3164 9.26314 60.2333 8.4107 60.3741C7.55825 60.5149 6.80568 60.8582 6.15298 61.4039C5.49835 61.9377 5.02274 62.6001 4.72615 63.391C4.41771 64.1839 4.33301 65.0067 4.47204 65.8594C4.61107 66.7121 4.95259 67.4645 5.4966 68.1166C6.02877 68.7706 6.69072 69.2511 7.48245 69.5582C8.27224 69.8534 9.09337 69.9306 9.94581 69.7898C10.7983 69.649 11.5518 69.3116 12.2064 68.7778C12.8591 68.2321 13.3397 67.5628 13.6481 66.77C13.9447 65.9791 14.0235 65.1572 13.8845 64.3045Z" fill="#02111A"/>
<path d="M12.8547 53.3613L7.40413 50.5716L2.82138 51.5363L2.99924 50.2344L7.58199 49.2697L13.588 47.9931L3.97381 43.1007L4.15167 41.7987L15.4612 47.5801L15.2809 48.8998L9.31294 50.1634L14.7303 52.9304L14.5475 54.268L2.09045 56.8866L2.26831 55.5847L12.8547 53.3613Z" fill="#02111A"/>
</svg>