<svg width="50" height="50" viewBox="0 0 50 50" fill="none" xmlns="http://www.w3.org/2000/svg">
<path d="M25 0C11.1929 0 0 11.1929 0 25C0 38.8071 11.1929 50 25 50C38.8071 50 50 38.8071 50 25C50 11.1929 38.8071 0 25 0ZM40.2344 34.5215C40.2344 36.4935 38.6357 38.092 36.6639 38.092H13.3361C11.3642 38.092 9.76562 36.4934 9.76562 34.5215V15.4785C9.76562 13.5065 11.3643 11.908 13.3361 11.908H36.6638C38.6357 11.908 40.2343 13.5066 40.2343 15.4785V34.5215H40.2344Z" fill="#18333E"/>
<path d="M32.6624 16.2796L25 20.7035L17.3376 16.2796C16.4837 15.7866 15.3919 16.0792 14.8988 16.933C14.4059 17.7869 14.6984 18.8787 15.5522 19.3718L24.1073 24.311L24.1074 24.3108C24.3786 24.4671 24.6871 24.5494 24.9999 24.5499C25.3128 24.5495 25.6213 24.4671 25.8924 24.3108L25.8925 24.311L34.4476 19.3718C35.3015 18.8788 35.594 17.7869 35.101 16.933C34.6082 16.0792 33.5163 15.7866 32.6624 16.2796V16.2796Z" fill="#18333E"/>
</svg>
