<svg width="50" height="50" viewBox="0 0 50 50" fill="none" xmlns="http://www.w3.org/2000/svg">
<g clip-path="url(#clip0_1_10)">
<path d="M28.5485 22.3326C26.8821 22.3326 26.136 23.2489 25.7194 23.8922V22.5554H22.5797C22.6205 23.4403 22.5797 32.002 22.5797 32.002H25.7194V26.7252C25.7194 26.4428 25.739 26.1603 25.8222 25.9595C26.0497 25.3946 26.5659 24.8101 27.4336 24.8101C28.5697 24.8101 29.0239 25.6771 29.0239 26.9464V32.0012H32.1636H32.1644V26.5832C32.1644 23.6828 30.6149 22.3326 28.5485 22.3326V22.3326ZM25.7186 23.9252H25.6982C25.7053 23.9142 25.7132 23.904 25.7186 23.893V23.9252Z" fill="#18333E"/>
<path d="M20.8412 22.5554H17.7014V32.002H20.8412V22.5554Z" fill="#18333E"/>
<path d="M25 0C11.2151 0 0 11.2151 0 25C0 38.7849 11.2151 50 25 50C38.7849 50 50 38.7849 50 25C50 11.2151 38.7849 0 25 0V0ZM38.2573 36.3077C38.2573 37.3691 37.3751 38.2311 36.2845 38.2311H13.5453C12.4577 38.2311 11.5746 37.3701 11.5746 36.3077V13.3036C11.5746 12.2412 12.4577 11.3802 13.5453 11.3802H36.2845C37.3741 11.3802 38.2573 12.2422 38.2573 13.3036V36.3077Z" fill="#18333E"/>
<path d="M19.2925 18.0011C18.2192 18.0011 17.5163 18.7057 17.5163 19.633C17.5163 20.5391 18.1981 21.2648 19.2509 21.2648H19.2713C20.3665 21.2648 21.0483 20.5391 21.0483 19.633C21.0271 18.7064 20.3673 18.0011 19.2925 18.0011Z" fill="#18333E"/>
</g>
<defs>
<clipPath id="clip0_1_10">
<rect width="50" height="50" fill="white"/>
</clipPath>
</defs>
</svg>
