<svg width="50" height="50" viewBox="0 0 50 50" fill="none" xmlns="http://www.w3.org/2000/svg">
<g clip-path="url(#clip0_1_17)">
<path d="M25.1001 0.100086C11.2929 0.100086 0.100098 11.2929 0.100098 25.1001C0.100098 38.9073 11.2929 50.1001 25.1001 50.1001C38.9073 50.1001 50.1001 38.9073 50.1001 25.1001C50.1001 11.2929 38.9073 0.100086 25.1001 0.100086V0.100086ZM24.8023 10.829C24.8829 10.4851 25.1957 10.3312 25.2507 10.304C25.3945 10.2329 25.5229 10.2223 25.7807 10.2001C25.7807 10.2001 26.0023 10.1856 26.1968 10.1912C32.8068 10.3684 38.5156 15.0612 39.3379 22.1701C39.3929 22.6451 39.4868 23.2068 39.514 24.3634C39.5195 24.5951 39.5234 25.0156 39.239 25.2868C39.1107 25.409 38.9634 25.4634 38.8606 25.4901C38.7179 25.4584 38.4929 25.3862 38.3201 25.1968C38.0862 24.9401 38.0734 24.6062 38.0673 24.4917C37.9979 23.2012 37.8151 21.9118 37.5184 20.6534C36.4195 15.9884 32.1845 12.3068 27.414 11.7734C26.8595 11.7112 26.3034 11.6501 25.7462 11.6245C25.3684 11.6073 24.9929 11.5373 24.8451 11.284C24.7379 11.0979 24.7907 10.8795 24.8023 10.829L24.8023 10.829ZM27.3984 15.2218C27.3862 15.2195 27.1201 15.2179 26.7834 15.1295C26.5184 15.0601 26.3118 15.0029 26.1545 14.8212C26.0057 14.649 25.9651 14.4379 25.959 14.2801C25.9929 14.1584 26.0645 13.9756 26.2295 13.8423C26.4623 13.654 26.7562 13.6651 26.8945 13.6718C30.7907 13.8662 33.0979 16.1223 33.0979 16.1223C33.2979 16.3179 34.1351 17.1545 34.8634 18.5118C35.7418 20.1484 35.9951 21.6723 36.0768 22.6056C36.0968 22.8184 36.0912 23.134 35.9445 23.4584C35.884 23.5918 35.8156 23.739 35.6551 23.8551C35.4601 23.9962 35.249 24.0067 35.1584 24.0056C35.0579 23.9679 34.9323 23.9034 34.8218 23.789C34.679 23.6412 34.6134 23.4801 34.6062 23.4134C34.4006 21.6251 34.1206 19.8784 33.0206 18.3679C31.624 16.4512 29.6462 15.6018 27.3984 15.2218V15.2218ZM32.4934 22.0173C32.4557 22.5356 32.2451 22.7268 32.1923 22.7718C32.0351 22.9045 31.8534 22.9412 31.7434 22.9534C31.6162 22.9284 31.4357 22.8718 31.289 22.7268C31.0718 22.5118 31.044 22.2162 31.0329 22.1195C30.9812 21.6712 30.6595 20.2368 29.9257 19.5751C29.4668 19.1612 28.8329 18.9429 27.9057 18.8084C27.5334 18.7545 27.1723 18.679 27.0418 18.4323C26.9423 18.244 27.0101 18.0312 27.0307 17.964C27.1829 17.4729 27.7784 17.3312 27.8256 17.3212C28.2212 17.3768 30.7495 17.7662 31.9057 19.6462C32.5312 20.6634 32.5145 21.7279 32.4934 22.0173H32.4934ZM39.4562 35.9429C38.5079 37.0979 37.5918 38.314 36.4684 39.2806C35.504 40.1101 34.2429 40.2101 32.9879 39.6973C22.6773 35.4879 15.2823 28.3312 11.0173 18.0023C10.9101 17.7434 10.8234 17.4756 10.7323 17.2106C9.93399 14.8923 10.1745 13.9918 12.0768 12.4323C12.6984 11.9223 13.364 11.4606 14.039 11.0223C15.1734 10.2856 16.4212 10.2945 17.279 11.3279C18.7045 13.0462 20.0645 14.844 21.2345 16.7423C22.1079 18.1595 21.7957 18.9618 20.514 20.029C20.2179 20.2756 19.9001 20.4968 19.6034 20.7429C18.8618 21.359 18.5484 22.0934 18.8757 23.0679C20.3095 27.3401 23.3018 30.0412 27.4729 31.4762C27.9579 31.6429 28.7157 31.2684 29.2462 30.9673C29.6423 30.7423 29.8745 30.2301 30.1812 29.8468C31.0095 28.8106 32.3495 28.3723 33.4556 29.074C35.4329 30.3284 37.3273 31.7218 39.1857 33.149C39.584 33.4551 39.6807 34.1534 39.8956 34.6251C39.7218 35.1756 39.6979 35.6484 39.4562 35.9429V35.9429Z" fill="#18333E"/>
</g>
<defs>
<clipPath id="clip0_1_17">
<rect width="50" height="50" fill="white"/>
</clipPath>
</defs>
</svg>
