<svg width="50" height="50" viewBox="0 0 50 50" fill="none" xmlns="http://www.w3.org/2000/svg">
<path d="M11.1375 41.0256L0 50V2.5641C0 1.88406 0.263392 1.23187 0.732233 0.751008C1.20107 0.270146 1.83696 0 2.5 0H47.5C48.163 0 48.7989 0.270146 49.2678 0.751008C49.7366 1.23187 50 1.88406 50 2.5641V38.4615C50 39.1416 49.7366 39.7938 49.2678 40.2746C48.7989 40.7555 48.163 41.0256 47.5 41.0256H11.1375H11.1375ZM9.4075 35.8974H45V5.1282H5V39.4487L9.4075 35.8974H9.4075ZM12.5 17.9487H17.5C17.501 19.9881 18.2917 21.9437 19.6981 23.3854C21.1045 24.8271 23.0116 25.637 25 25.637C26.9884 25.637 28.8955 24.8271 30.3019 23.3854C31.7083 21.9437 32.499 19.9881 32.5 17.9487H37.5C37.5 21.3489 36.183 24.6099 33.8388 27.0142C31.4946 29.4185 28.3152 30.7692 25 30.7692C21.6848 30.7692 18.5054 29.4185 16.1612 27.0142C13.817 24.6099 12.5 21.3489 12.5 17.9487V17.9487Z" fill="#18333E"/>
</svg>
